<?xml version="1.0" encoding="UTF-8"?> <svg xmlns="http://www.w3.org/2000/svg" width="1920" height="1400" viewBox="0 0 1920 1400" fill="none"> <g clip-path="url(#clip0)"> <path fill-rule="evenodd" clip-rule="evenodd" d="M-576.206 1257.33C-537.173 1369.71 -230.765 1137.69 -3.48284 1149.43C269.399 1163.54 383.515 1368.35 656.433 1381.74C989.481 1398.1 1139.22 1162.16 1470.49 1123.99C1807.66 1085.15 2035.97 1351.35 2336.69 1194.05C2518.4 1098.99 2756.51 885.4 2698.65 813.73C2691.69 813.612 2688.91 814.355 2677.64 820.352C2435.36 955.607 2199.11 949.166 2134.6 882.252C2035.14 781.11 2142.29 760.722 2231.66 661.48C2538.16 325.749 2022.17 604.681 1858.08 554.537C1741.36 518.448 1811.8 466.885 1759.12 399.767C1645.93 254.75 1527.74 338.924 1253.99 508.369C1055.86 630.802 1031.84 596.622 1019.48 524.644C1011.23 475.341 1021.34 413.192 1013.19 397.547C962.258 296.278 802.41 291.56 508.96 435.572C337.365 520.186 -707.042 876.313 -576.206 1257.33Z" fill="#502F44"></path> <path fill-rule="evenodd" clip-rule="evenodd" d="M-868.354 852.328C-829.321 964.708 -522.914 732.688 -295.631 744.436C-22.7492 758.542 91.3667 963.354 364.284 976.747C697.333 993.102 847.074 757.161 1178.35 718.994C1515.51 680.154 1743.82 946.352 2044.55 789.048C2226.25 693.997 2464.36 480.402 2406.5 408.732C2399.54 408.614 2396.76 409.357 2385.49 415.354C2143.21 550.609 1906.96 544.168 1842.45 477.254C1742.99 376.112 1850.14 355.724 1939.51 256.482C2246.02 -79.2495 1730.02 199.683 1565.93 149.539C1449.22 113.45 1519.65 61.8869 1466.97 -5.23153C1353.79 -150.248 1235.59 -66.0739 961.839 103.371C763.712 225.804 739.688 191.624 727.332 119.645C719.081 70.343 729.196 8.19412 721.037 -7.45112C670.11 -108.72 510.261 -113.438 216.811 30.574C45.217 115.188 -999.19 471.315 -868.354 852.328Z" fill="#502F44"></path> <path fill-rule="evenodd" clip-rule="evenodd" d="M2070.51 1015.29C1906.83 937.37 1897.02 773.75 1732.95 696.66C1487.69 581.438 1282.17 849.79 1039.81 728.61C798.535 607.974 910.833 226.576 649.811 158.52C444.479 104.983 313.148 417.462 128.725 312.509C-13.3933 231.631 8.28593 285.479 -58.898 -61.8162C-106.419 -309.182 -110.515 -552.452 -6.46156 -612.245C-1.54566 -609.788 0.0925674 -608.151 3.36983 -597.502C69.7345 -363.242 70.4739 -476.711 255.979 -547.915C410.396 -607.185 455.633 -478.733 472.839 -621.255C528.552 -1102.88 678.487 -612.245 843.989 -612.245C961.97 -612.245 952.958 -694.155 1049.64 -751.491C1257.74 -875.174 1274.95 -739.205 1335.58 -455.799C1379.82 -250.207 1426.52 -280.514 1497.8 -357.508C1546.14 -409.93 1591.21 -482.01 1610.05 -497.573C1733.77 -593.406 1858.3 -543.441 1955.8 -281.332C2013.15 -125.705 2529.51 1233.79 2070.51 1015.29Z" fill="#47243B"></path> <path fill-rule="evenodd" clip-rule="evenodd" d="M2829.92 1484.49C2365.54 1389.55 2121.14 1266.02 1529.01 1052.02C936.876 838.017 690.223 1138.31 132.007 932.524C-426.208 726.741 -251.197 1221.21 -591.448 1125.3C-853.65 1051.39 -797.026 1129.81 -1044.77 594.967C-1220.7 213.885 -1324.76 -177.959 -1180.46 -316.34C-1171.52 -314.335 -1168.22 -312.347 -1158.66 -296.435C-957.511 55.9037 -895.046 176.337 -623.605 -13.1169C-397.653 -170.819 -435.157 -151.241 -302.32 -218.59C311.787 -529.945 1460.69 -202.404 1460.69 -202.404C1460.69 -202.404 1561.86 -441.197 1586.09 -473.914C1747.76 -678.465 1969.14 -647.502 2231.79 -262.586C2386.86 -33.8253 3659.65 1654.11 2829.92 1484.49Z" fill="url(#paint0_linear)"></path> <path fill-rule="evenodd" clip-rule="evenodd" d="M3479.39 50.632C3469.12 -90.8852 3045.19 81.8285 2787.4 -1.86609C2477.87 -102.352 2409.74 -373.528 2099.96 -473.21C1721.93 -594.853 1476.99 -369.271 1084.2 -427.56C684.427 -486.886 503.867 -864.04 109.487 -775.646C-128.796 -722.239 -468.502 -549.674 -424.041 -449.242C-416.061 -446.96 -412.643 -446.961 -397.822 -450.385C-77.4772 -531.415 192.269 -451.068 245.85 -354.06C329.072 -206.837 199.549 -216.424 66.1667 -129.688C-389.842 162.477 289.61 0.415894 462.892 108.836C586.014 186.442 489.113 224.105 529.014 317.689C614.515 519.693 776.397 459.206 1143.48 348.503C1552.85 225.38 1295.92 796.875 1977.97 662.352C2201.42 617.842 3512.44 529.965 3479.39 50.632Z" fill="url(#paint1_linear)"></path> </g> <defs> <linearGradient id="paint0_linear" x1="494.395" y1="-1110.09" x2="1244.23" y2="1917.85" gradientUnits="userSpaceOnUse"> <stop stop-color="#391030"></stop> <stop offset="1" stop-color="#89497B"></stop> </linearGradient> <linearGradient id="paint1_linear" x1="1522.6" y1="-985.396" x2="1522.6" y2="679.92" gradientUnits="userSpaceOnUse"> <stop stop-color="#391030"></stop> <stop offset="1" stop-color="#89497B"></stop> </linearGradient> <clipPath id="clip0"> <rect width="1920" height="1400" fill="white"></rect> </clipPath> </defs> </svg> 